<mxfile host="app.diagrams.net" modified="2024-04-01T07:47:20.015Z" agent="Mozilla/5.0 (Windows NT 10.0; Win64; x64) AppleWebKit/537.36 (KHTML, like Gecko) Chrome/123.0.0.0 Safari/537.36" etag="8FzCGOG00M25rsibmM0p" version="24.2.1" type="device">
  <diagram name="Страница — 1" id="Q4NtLcU40M-0rt19lN3W">
    <mxGraphModel dx="1195" dy="650" grid="1" gridSize="10" guides="1" tooltips="1" connect="1" arrows="1" fold="1" page="1" pageScale="1" pageWidth="827" pageHeight="1169" math="0" shadow="0">
      <root>
        <mxCell id="0" />
        <mxCell id="1" parent="0" />
        <mxCell id="UAzhUowsetnpxLLN-jfO-1" value="Офис-&lt;span style=&quot;background-color: initial;&quot;&gt;менеджер&lt;/span&gt;" style="swimlane;whiteSpace=wrap;html=1;" vertex="1" parent="1">
          <mxGeometry x="120" y="200" width="200" height="810" as="geometry" />
        </mxCell>
        <mxCell id="UAzhUowsetnpxLLN-jfO-3" value="" style="ellipse;whiteSpace=wrap;html=1;aspect=fixed;" vertex="1" parent="UAzhUowsetnpxLLN-jfO-1">
          <mxGeometry x="75" y="50" width="50" height="50" as="geometry" />
        </mxCell>
        <mxCell id="UAzhUowsetnpxLLN-jfO-4" value="Зарегистрировать и обработать заявку" style="rounded=1;whiteSpace=wrap;html=1;" vertex="1" parent="UAzhUowsetnpxLLN-jfO-1">
          <mxGeometry x="50" y="140" width="130" height="70" as="geometry" />
        </mxCell>
        <mxCell id="UAzhUowsetnpxLLN-jfO-5" value="" style="shape=actor;whiteSpace=wrap;html=1;" vertex="1" parent="UAzhUowsetnpxLLN-jfO-1">
          <mxGeometry x="50" y="140" width="10" height="10" as="geometry" />
        </mxCell>
        <mxCell id="UAzhUowsetnpxLLN-jfO-53" value="" style="endArrow=classic;html=1;rounded=0;exitX=0.5;exitY=1;exitDx=0;exitDy=0;entryX=0.385;entryY=-0.036;entryDx=0;entryDy=0;entryPerimeter=0;" edge="1" parent="UAzhUowsetnpxLLN-jfO-1" source="UAzhUowsetnpxLLN-jfO-3" target="UAzhUowsetnpxLLN-jfO-4">
          <mxGeometry width="50" height="50" relative="1" as="geometry">
            <mxPoint x="120" y="130" as="sourcePoint" />
            <mxPoint x="170" y="80" as="targetPoint" />
          </mxGeometry>
        </mxCell>
        <mxCell id="UAzhUowsetnpxLLN-jfO-2" value="Сотрудник отдела продаж" style="swimlane;whiteSpace=wrap;html=1;" vertex="1" parent="1">
          <mxGeometry x="320" y="200" width="500" height="810" as="geometry" />
        </mxCell>
        <mxCell id="UAzhUowsetnpxLLN-jfO-6" value="" style="rhombus;whiteSpace=wrap;html=1;" vertex="1" parent="UAzhUowsetnpxLLN-jfO-2">
          <mxGeometry x="225" y="70" width="80" height="80" as="geometry" />
        </mxCell>
        <mxCell id="UAzhUowsetnpxLLN-jfO-8" value="Оформить заявку на аренду" style="rounded=1;whiteSpace=wrap;html=1;" vertex="1" parent="UAzhUowsetnpxLLN-jfO-2">
          <mxGeometry x="120" y="180" width="120" height="60" as="geometry" />
        </mxCell>
        <mxCell id="UAzhUowsetnpxLLN-jfO-9" value="Оформить заявку на покупку" style="rounded=1;whiteSpace=wrap;html=1;" vertex="1" parent="UAzhUowsetnpxLLN-jfO-2">
          <mxGeometry x="305" y="180" width="120" height="60" as="geometry" />
        </mxCell>
        <mxCell id="UAzhUowsetnpxLLN-jfO-10" value="" style="endArrow=classic;html=1;rounded=0;exitX=0;exitY=0.5;exitDx=0;exitDy=0;entryX=0.5;entryY=0;entryDx=0;entryDy=0;" edge="1" parent="UAzhUowsetnpxLLN-jfO-2" source="UAzhUowsetnpxLLN-jfO-6" target="UAzhUowsetnpxLLN-jfO-8">
          <mxGeometry width="50" height="50" relative="1" as="geometry">
            <mxPoint x="175" y="148.51999999999995" as="sourcePoint" />
            <mxPoint x="134" y="111.48" as="targetPoint" />
            <Array as="points">
              <mxPoint x="180" y="110" />
            </Array>
          </mxGeometry>
        </mxCell>
        <mxCell id="UAzhUowsetnpxLLN-jfO-55" value="Аренда" style="edgeLabel;html=1;align=center;verticalAlign=middle;resizable=0;points=[];" vertex="1" connectable="0" parent="UAzhUowsetnpxLLN-jfO-10">
          <mxGeometry x="-0.3768" y="-1" relative="1" as="geometry">
            <mxPoint y="-9" as="offset" />
          </mxGeometry>
        </mxCell>
        <mxCell id="UAzhUowsetnpxLLN-jfO-13" value="" style="endArrow=classic;html=1;rounded=0;exitX=1;exitY=0.5;exitDx=0;exitDy=0;entryX=0.5;entryY=0;entryDx=0;entryDy=0;" edge="1" parent="UAzhUowsetnpxLLN-jfO-2" source="UAzhUowsetnpxLLN-jfO-6" target="UAzhUowsetnpxLLN-jfO-9">
          <mxGeometry width="50" height="50" relative="1" as="geometry">
            <mxPoint x="340" y="170" as="sourcePoint" />
            <mxPoint x="390" y="120" as="targetPoint" />
            <Array as="points">
              <mxPoint x="365" y="110" />
            </Array>
          </mxGeometry>
        </mxCell>
        <mxCell id="UAzhUowsetnpxLLN-jfO-56" value="Покупка" style="edgeLabel;html=1;align=center;verticalAlign=middle;resizable=0;points=[];" vertex="1" connectable="0" parent="UAzhUowsetnpxLLN-jfO-13">
          <mxGeometry x="-0.3205" y="2" relative="1" as="geometry">
            <mxPoint x="1" y="-8" as="offset" />
          </mxGeometry>
        </mxCell>
        <mxCell id="UAzhUowsetnpxLLN-jfO-14" value="Проверить наличие товара на складе" style="rounded=1;whiteSpace=wrap;html=1;" vertex="1" parent="UAzhUowsetnpxLLN-jfO-2">
          <mxGeometry x="225" y="280" width="120" height="60" as="geometry" />
        </mxCell>
        <mxCell id="UAzhUowsetnpxLLN-jfO-15" value="" style="endArrow=classic;html=1;rounded=0;exitX=0.5;exitY=1;exitDx=0;exitDy=0;" edge="1" parent="UAzhUowsetnpxLLN-jfO-2">
          <mxGeometry width="50" height="50" relative="1" as="geometry">
            <mxPoint x="180" y="240" as="sourcePoint" />
            <mxPoint x="285" y="280" as="targetPoint" />
            <Array as="points">
              <mxPoint x="180" y="260" />
              <mxPoint x="200" y="260" />
              <mxPoint x="285" y="260" />
            </Array>
          </mxGeometry>
        </mxCell>
        <mxCell id="UAzhUowsetnpxLLN-jfO-16" value="" style="endArrow=classic;html=1;rounded=0;exitX=0.5;exitY=1;exitDx=0;exitDy=0;entryX=0.5;entryY=0;entryDx=0;entryDy=0;" edge="1" parent="UAzhUowsetnpxLLN-jfO-2" target="UAzhUowsetnpxLLN-jfO-14">
          <mxGeometry width="50" height="50" relative="1" as="geometry">
            <mxPoint x="390" y="240" as="sourcePoint" />
            <mxPoint x="370" y="310" as="targetPoint" />
            <Array as="points">
              <mxPoint x="390" y="260" />
              <mxPoint x="285" y="260" />
            </Array>
          </mxGeometry>
        </mxCell>
        <mxCell id="UAzhUowsetnpxLLN-jfO-17" value="" style="rhombus;whiteSpace=wrap;html=1;" vertex="1" parent="UAzhUowsetnpxLLN-jfO-2">
          <mxGeometry x="130" y="465.5" width="80" height="80" as="geometry" />
        </mxCell>
        <mxCell id="UAzhUowsetnpxLLN-jfO-19" value="" style="line;strokeWidth=2;direction=south;html=1;" vertex="1" parent="UAzhUowsetnpxLLN-jfO-2">
          <mxGeometry x="165" y="481" width="10" height="50" as="geometry" />
        </mxCell>
        <mxCell id="UAzhUowsetnpxLLN-jfO-20" value="" style="line;strokeWidth=2;direction=west;html=1;" vertex="1" parent="UAzhUowsetnpxLLN-jfO-2">
          <mxGeometry x="145" y="501" width="50" height="10" as="geometry" />
        </mxCell>
        <mxCell id="UAzhUowsetnpxLLN-jfO-25" value="" style="rhombus;whiteSpace=wrap;html=1;" vertex="1" parent="UAzhUowsetnpxLLN-jfO-2">
          <mxGeometry x="135" y="605.5" width="80" height="80" as="geometry" />
        </mxCell>
        <mxCell id="UAzhUowsetnpxLLN-jfO-26" value="" style="line;strokeWidth=2;direction=south;html=1;" vertex="1" parent="UAzhUowsetnpxLLN-jfO-2">
          <mxGeometry x="170" y="621" width="10" height="50" as="geometry" />
        </mxCell>
        <mxCell id="UAzhUowsetnpxLLN-jfO-27" value="" style="line;strokeWidth=2;direction=west;html=1;" vertex="1" parent="UAzhUowsetnpxLLN-jfO-2">
          <mxGeometry x="150" y="641" width="50" height="10" as="geometry" />
        </mxCell>
        <mxCell id="UAzhUowsetnpxLLN-jfO-28" value="" style="rhombus;whiteSpace=wrap;html=1;" vertex="1" parent="UAzhUowsetnpxLLN-jfO-2">
          <mxGeometry x="270" y="385.5" width="80" height="80" as="geometry" />
        </mxCell>
        <mxCell id="UAzhUowsetnpxLLN-jfO-29" value="" style="endArrow=classic;html=1;rounded=0;exitX=0.442;exitY=1.033;exitDx=0;exitDy=0;exitPerimeter=0;entryX=0.5;entryY=0;entryDx=0;entryDy=0;" edge="1" parent="UAzhUowsetnpxLLN-jfO-2" source="UAzhUowsetnpxLLN-jfO-14" target="UAzhUowsetnpxLLN-jfO-28">
          <mxGeometry width="50" height="50" relative="1" as="geometry">
            <mxPoint x="190" y="410" as="sourcePoint" />
            <mxPoint x="240" y="360" as="targetPoint" />
            <Array as="points">
              <mxPoint x="278" y="370" />
              <mxPoint x="310" y="370" />
            </Array>
          </mxGeometry>
        </mxCell>
        <mxCell id="UAzhUowsetnpxLLN-jfO-30" value="Забронировать товар на складе" style="rounded=1;whiteSpace=wrap;html=1;" vertex="1" parent="UAzhUowsetnpxLLN-jfO-2">
          <mxGeometry x="340" y="500" width="120" height="60" as="geometry" />
        </mxCell>
        <mxCell id="UAzhUowsetnpxLLN-jfO-31" value="Выдача товара по заказу" style="rounded=1;whiteSpace=wrap;html=1;" vertex="1" parent="UAzhUowsetnpxLLN-jfO-2">
          <mxGeometry x="300" y="726" width="120" height="60" as="geometry" />
        </mxCell>
        <mxCell id="UAzhUowsetnpxLLN-jfO-32" value="" style="endArrow=classic;html=1;rounded=0;exitX=0;exitY=0.5;exitDx=0;exitDy=0;entryX=0.5;entryY=0;entryDx=0;entryDy=0;" edge="1" parent="UAzhUowsetnpxLLN-jfO-2" source="UAzhUowsetnpxLLN-jfO-28" target="UAzhUowsetnpxLLN-jfO-17">
          <mxGeometry width="50" height="50" relative="1" as="geometry">
            <mxPoint x="240" y="515.5" as="sourcePoint" />
            <mxPoint x="290" y="465.5" as="targetPoint" />
            <Array as="points">
              <mxPoint x="170" y="426" />
            </Array>
          </mxGeometry>
        </mxCell>
        <mxCell id="UAzhUowsetnpxLLN-jfO-33" value="" style="endArrow=classic;html=1;rounded=0;exitX=1;exitY=0.5;exitDx=0;exitDy=0;entryX=0.5;entryY=0;entryDx=0;entryDy=0;" edge="1" parent="UAzhUowsetnpxLLN-jfO-2" source="UAzhUowsetnpxLLN-jfO-28" target="UAzhUowsetnpxLLN-jfO-30">
          <mxGeometry width="50" height="50" relative="1" as="geometry">
            <mxPoint x="400" y="481" as="sourcePoint" />
            <mxPoint x="450" y="431" as="targetPoint" />
            <Array as="points">
              <mxPoint x="400" y="426" />
            </Array>
          </mxGeometry>
        </mxCell>
        <mxCell id="UAzhUowsetnpxLLN-jfO-34" value="Заказать товар с фабрики" style="rounded=1;whiteSpace=wrap;html=1;" vertex="1" parent="UAzhUowsetnpxLLN-jfO-2">
          <mxGeometry x="10" y="545.5" width="120" height="60" as="geometry" />
        </mxCell>
        <mxCell id="UAzhUowsetnpxLLN-jfO-35" value="" style="endArrow=classic;html=1;rounded=0;exitX=0;exitY=0.5;exitDx=0;exitDy=0;entryX=0.5;entryY=0;entryDx=0;entryDy=0;" edge="1" parent="UAzhUowsetnpxLLN-jfO-2" source="UAzhUowsetnpxLLN-jfO-17" target="UAzhUowsetnpxLLN-jfO-34">
          <mxGeometry width="50" height="50" relative="1" as="geometry">
            <mxPoint x="60" y="481" as="sourcePoint" />
            <mxPoint x="110" y="431" as="targetPoint" />
            <Array as="points">
              <mxPoint x="70" y="506" />
            </Array>
          </mxGeometry>
        </mxCell>
        <mxCell id="UAzhUowsetnpxLLN-jfO-36" value="Информировать&amp;nbsp;&lt;br&gt;клиента" style="rounded=1;whiteSpace=wrap;html=1;" vertex="1" parent="UAzhUowsetnpxLLN-jfO-2">
          <mxGeometry x="195" y="545.5" width="120" height="60" as="geometry" />
        </mxCell>
        <mxCell id="UAzhUowsetnpxLLN-jfO-37" value="" style="endArrow=classic;html=1;rounded=0;exitX=1;exitY=0.5;exitDx=0;exitDy=0;entryX=0.5;entryY=0;entryDx=0;entryDy=0;" edge="1" parent="UAzhUowsetnpxLLN-jfO-2" source="UAzhUowsetnpxLLN-jfO-17" target="UAzhUowsetnpxLLN-jfO-36">
          <mxGeometry width="50" height="50" relative="1" as="geometry">
            <mxPoint x="240" y="530" as="sourcePoint" />
            <mxPoint x="290" y="480" as="targetPoint" />
            <Array as="points">
              <mxPoint x="255" y="506" />
            </Array>
          </mxGeometry>
        </mxCell>
        <mxCell id="UAzhUowsetnpxLLN-jfO-40" value="" style="endArrow=classic;html=1;rounded=0;exitX=0.5;exitY=1;exitDx=0;exitDy=0;entryX=0;entryY=0.5;entryDx=0;entryDy=0;" edge="1" parent="UAzhUowsetnpxLLN-jfO-2" source="UAzhUowsetnpxLLN-jfO-34" target="UAzhUowsetnpxLLN-jfO-25">
          <mxGeometry width="50" height="50" relative="1" as="geometry">
            <mxPoint x="80" y="691" as="sourcePoint" />
            <mxPoint x="130" y="641" as="targetPoint" />
            <Array as="points">
              <mxPoint x="70" y="646" />
            </Array>
          </mxGeometry>
        </mxCell>
        <mxCell id="UAzhUowsetnpxLLN-jfO-41" value="" style="endArrow=classic;html=1;rounded=0;exitX=0.5;exitY=1;exitDx=0;exitDy=0;entryX=1;entryY=0.5;entryDx=0;entryDy=0;" edge="1" parent="UAzhUowsetnpxLLN-jfO-2" source="UAzhUowsetnpxLLN-jfO-36" target="UAzhUowsetnpxLLN-jfO-25">
          <mxGeometry width="50" height="50" relative="1" as="geometry">
            <mxPoint x="240" y="691" as="sourcePoint" />
            <mxPoint x="290" y="641" as="targetPoint" />
            <Array as="points">
              <mxPoint x="255" y="646" />
            </Array>
          </mxGeometry>
        </mxCell>
        <mxCell id="UAzhUowsetnpxLLN-jfO-42" value="" style="sketch=0;pointerEvents=1;shadow=0;dashed=0;html=1;strokeColor=none;fillColor=#505050;labelPosition=center;verticalLabelPosition=bottom;verticalAlign=top;outlineConnect=0;align=center;shape=mxgraph.office.concepts.clock;" vertex="1" parent="UAzhUowsetnpxLLN-jfO-2">
          <mxGeometry x="250" y="681" width="45" height="45" as="geometry" />
        </mxCell>
        <mxCell id="UAzhUowsetnpxLLN-jfO-43" value="" style="endArrow=classic;html=1;rounded=0;exitX=0.5;exitY=1;exitDx=0;exitDy=0;" edge="1" parent="UAzhUowsetnpxLLN-jfO-2" source="UAzhUowsetnpxLLN-jfO-25" target="UAzhUowsetnpxLLN-jfO-42">
          <mxGeometry width="50" height="50" relative="1" as="geometry">
            <mxPoint x="170" y="750" as="sourcePoint" />
            <mxPoint x="220" y="700" as="targetPoint" />
            <Array as="points">
              <mxPoint x="175" y="704" />
            </Array>
          </mxGeometry>
        </mxCell>
        <mxCell id="UAzhUowsetnpxLLN-jfO-44" value="" style="endArrow=classic;html=1;rounded=0;entryX=0.5;entryY=0;entryDx=0;entryDy=0;" edge="1" parent="UAzhUowsetnpxLLN-jfO-2" target="UAzhUowsetnpxLLN-jfO-31">
          <mxGeometry width="50" height="50" relative="1" as="geometry">
            <mxPoint x="360" y="560" as="sourcePoint" />
            <mxPoint x="440" y="571" as="targetPoint" />
          </mxGeometry>
        </mxCell>
        <mxCell id="UAzhUowsetnpxLLN-jfO-45" value="" style="endArrow=classic;html=1;rounded=0;entryX=0.5;entryY=0;entryDx=0;entryDy=0;" edge="1" parent="UAzhUowsetnpxLLN-jfO-2" source="UAzhUowsetnpxLLN-jfO-42" target="UAzhUowsetnpxLLN-jfO-31">
          <mxGeometry width="50" height="50" relative="1" as="geometry">
            <mxPoint x="330" y="710" as="sourcePoint" />
            <mxPoint x="380" y="660" as="targetPoint" />
            <Array as="points">
              <mxPoint x="360" y="704" />
            </Array>
          </mxGeometry>
        </mxCell>
        <mxCell id="UAzhUowsetnpxLLN-jfO-46" value="" style="shape=actor;whiteSpace=wrap;html=1;" vertex="1" parent="UAzhUowsetnpxLLN-jfO-2">
          <mxGeometry x="120" y="180" width="10" height="10" as="geometry" />
        </mxCell>
        <mxCell id="UAzhUowsetnpxLLN-jfO-47" value="" style="shape=actor;whiteSpace=wrap;html=1;" vertex="1" parent="UAzhUowsetnpxLLN-jfO-2">
          <mxGeometry x="305" y="180" width="10" height="10" as="geometry" />
        </mxCell>
        <mxCell id="UAzhUowsetnpxLLN-jfO-48" value="" style="shape=actor;whiteSpace=wrap;html=1;" vertex="1" parent="UAzhUowsetnpxLLN-jfO-2">
          <mxGeometry x="225" y="280" width="10" height="10" as="geometry" />
        </mxCell>
        <mxCell id="UAzhUowsetnpxLLN-jfO-49" value="" style="shape=actor;whiteSpace=wrap;html=1;" vertex="1" parent="UAzhUowsetnpxLLN-jfO-2">
          <mxGeometry x="10" y="545.5" width="10" height="10" as="geometry" />
        </mxCell>
        <mxCell id="UAzhUowsetnpxLLN-jfO-50" value="" style="shape=actor;whiteSpace=wrap;html=1;" vertex="1" parent="UAzhUowsetnpxLLN-jfO-2">
          <mxGeometry x="195" y="545.5" width="10" height="10" as="geometry" />
        </mxCell>
        <mxCell id="UAzhUowsetnpxLLN-jfO-51" value="" style="shape=actor;whiteSpace=wrap;html=1;" vertex="1" parent="UAzhUowsetnpxLLN-jfO-2">
          <mxGeometry x="340" y="501" width="10" height="10" as="geometry" />
        </mxCell>
        <mxCell id="UAzhUowsetnpxLLN-jfO-52" value="" style="shape=actor;whiteSpace=wrap;html=1;" vertex="1" parent="UAzhUowsetnpxLLN-jfO-2">
          <mxGeometry x="300" y="726" width="10" height="10" as="geometry" />
        </mxCell>
        <mxCell id="UAzhUowsetnpxLLN-jfO-57" value="" style="ellipse;whiteSpace=wrap;html=1;aspect=fixed;" vertex="1" parent="UAzhUowsetnpxLLN-jfO-2">
          <mxGeometry x="450" y="736" width="39" height="39" as="geometry" />
        </mxCell>
        <mxCell id="UAzhUowsetnpxLLN-jfO-58" value="" style="endArrow=classic;html=1;rounded=0;entryX=0;entryY=0.5;entryDx=0;entryDy=0;exitX=1;exitY=0.5;exitDx=0;exitDy=0;" edge="1" parent="UAzhUowsetnpxLLN-jfO-2" source="UAzhUowsetnpxLLN-jfO-31" target="UAzhUowsetnpxLLN-jfO-57">
          <mxGeometry width="50" height="50" relative="1" as="geometry">
            <mxPoint x="420" y="750" as="sourcePoint" />
            <mxPoint x="470" y="710" as="targetPoint" />
          </mxGeometry>
        </mxCell>
        <mxCell id="UAzhUowsetnpxLLN-jfO-7" value="" style="endArrow=classic;html=1;rounded=0;exitX=1;exitY=0.5;exitDx=0;exitDy=0;entryX=0.5;entryY=0;entryDx=0;entryDy=0;" edge="1" parent="1" source="UAzhUowsetnpxLLN-jfO-4" target="UAzhUowsetnpxLLN-jfO-6">
          <mxGeometry width="50" height="50" relative="1" as="geometry">
            <mxPoint x="390" y="430" as="sourcePoint" />
            <mxPoint x="540" y="280" as="targetPoint" />
            <Array as="points">
              <mxPoint x="370" y="375" />
              <mxPoint x="370" y="260" />
              <mxPoint x="545" y="260" />
              <mxPoint x="585" y="260" />
            </Array>
          </mxGeometry>
        </mxCell>
      </root>
    </mxGraphModel>
  </diagram>
</mxfile>
